<svg width="92px" height="35px" viewBox="0 0 92 35" version="1.1" xmlns="http://www.w3.org/2000/svg" xmlns:xlink="http://www.w3.org/1999/xlink">
  <g transform="translate(-63.000000, -50.000000)" fill="#FFFFFF">
    <path d="M67.225,61.846 L68.08,61.846 C68.7260032,61.846 69.3023308,61.7446677 69.809,61.542 C70.3156692,61.3393323 70.7431649,61.0606684 71.0915,60.706 C71.4398351,60.3513316 71.7058324,59.9301691 71.8895,59.4425 C72.0731676,58.9548309 72.165,58.4196696 72.165,57.837 C72.165,57.2669971 72.0700009,56.7350025 71.88,56.241 C71.689999,55.7469975 71.4208351,55.3226684 71.0725,54.968 C70.7241649,54.6133316 70.2966692,54.3346677 69.79,54.132 C69.2833308,53.9293323 68.7133365,53.828 68.08,53.828 L67.225,53.828 L67.225,61.846 Z M63.501,50.674 L69.011,50.674 C69.9863382,50.674 70.9014957,50.8703314 71.7565,51.263 C72.6115043,51.6556686 73.3588301,52.1781634 73.9985,52.8305 C74.6381699,53.4828366 75.1416648,54.242829 75.509,55.1105 C75.8763352,55.978171 76.06,56.8869952 76.06,57.837 C76.06,58.774338 75.8795018,59.676829 75.5185,60.5445 C75.1574982,61.412171 74.6571699,62.17533 74.0175,62.834 C73.3778301,63.49267 72.6305043,64.0183314 71.7755,64.411 C70.9204957,64.8036686 69.9990049,65 69.011,65 L63.501,65 L63.501,50.674 Z M86.586,53.828 L82.159,53.828 L82.159,56.222 L86.339,56.222 L86.339,59.376 L82.159,59.376 L82.159,61.846 L86.586,61.846 L86.586,65 L78.435,65 L78.435,50.674 L86.586,50.674 L86.586,53.828 Z M97.131,54.341 C96.7256646,54.011665 96.3203354,53.7678341 95.915,53.6095 C95.5096646,53.4511659 95.1170019,53.372 94.737,53.372 C94.2556643,53.372 93.8630015,53.4859989 93.559,53.714 C93.2549985,53.9420011 93.103,54.2396648 93.103,54.607 C93.103,54.8603346 93.1789992,55.0693325 93.331,55.234 C93.4830008,55.3986675 93.6824988,55.5411661 93.9295,55.6615 C94.1765012,55.7818339 94.4551651,55.8863329 94.7655,55.975 C95.0758349,56.0636671 95.3829985,56.1586662 95.687,56.26 C96.9030061,56.6653354 97.7928305,57.2068299 98.3565,57.8845 C98.9201695,58.5621701 99.202,59.4456612 99.202,60.535 C99.202,61.2696703 99.0785012,61.9346637 98.8315,62.53 C98.5844988,63.1253363 98.2235024,63.6351645 97.7485,64.0595 C97.2734976,64.4838355 96.6908368,64.8131655 96.0005,65.0475 C95.3101632,65.2818345 94.5280044,65.399 93.654,65.399 C91.8426576,65.399 90.1643411,64.8606721 88.619,63.784 L90.215,60.782 C90.7723361,61.2760025 91.3233306,61.6433321 91.868,61.884 C92.4126694,62.1246679 92.9509973,62.245 93.483,62.245 C94.091003,62.245 94.5438318,62.1056681 94.8415,61.827 C95.1391682,61.5483319 95.288,61.2316684 95.288,60.877 C95.288,60.6616656 95.2500004,60.4748341 95.174,60.3165 C95.0979996,60.1581659 94.9713342,60.0125007 94.794,59.8795 C94.6166658,59.7464993 94.3855014,59.6230006 94.1005,59.509 C93.8154986,59.3949994 93.4703354,59.268334 93.065,59.129 C92.5836643,58.9769992 92.1118356,58.8091676 91.6495,58.6255 C91.1871644,58.4418324 90.7755018,58.1980015 90.4145,57.894 C90.0534982,57.5899985 89.7621678,57.2068356 89.5405,56.7445 C89.3188322,56.2821644 89.208,55.6963369 89.208,54.987 C89.208,54.2776631 89.3251655,53.6348362 89.5595,53.0585 C89.7938345,52.4821638 90.1231645,51.9881687 90.5475,51.5765 C90.9718355,51.1648313 91.4911636,50.8450011 92.1055,50.617 C92.7198364,50.3889989 93.4069962,50.275 94.167,50.275 C94.8763369,50.275 95.6173295,50.3731657 96.39,50.5695 C97.1626705,50.7658343 97.9036631,51.0539981 98.613,51.434 L97.131,54.341 Z M105.263,50.674 L105.263,65 L101.539,65 L101.539,50.674 L105.263,50.674 Z M115.238,56.982 L122.629,56.982 C122.629,57.7420038 122.597334,58.4323302 122.534,59.053 C122.470666,59.6736698 122.344001,60.2499973 122.154,60.782 C121.887999,61.5293371 121.527002,62.1911638 121.071,62.7675 C120.614998,63.3438362 120.079836,63.8251647 119.4655,64.2115 C118.851164,64.5978353 118.17667,64.8923323 117.442,65.095 C116.70733,65.2976677 115.934671,65.399 115.124,65.399 C114.009328,65.399 112.992838,65.2153352 112.0745,64.848 C111.156162,64.4806648 110.36767,63.9645033 109.709,63.2995 C109.05033,62.6344967 108.537335,61.8365047 108.17,60.9055 C107.802665,59.9744953 107.619,58.945339 107.619,57.818 C107.619,56.7033278 107.799498,55.6805047 108.1605,54.7495 C108.521502,53.8184953 109.034497,53.02367 109.6995,52.365 C110.364503,51.70633 111.165662,51.1933352 112.103,50.826 C113.040338,50.4586648 114.085328,50.275 115.238,50.275 C116.732674,50.275 118.043661,50.5979968 119.171,51.244 C120.298339,51.8900032 121.19133,52.8906599 121.85,54.246 L118.316,55.709 C117.986665,54.9236627 117.559169,54.3600017 117.0335,54.018 C116.507831,53.6759983 115.909337,53.505 115.238,53.505 C114.680664,53.505 114.174002,53.609499 113.718,53.8185 C113.261998,54.027501 112.872502,54.3251647 112.5495,54.7115 C112.226498,55.0978353 111.973168,55.5633306 111.7895,56.108 C111.605832,56.6526694 111.514,57.2606633 111.514,57.932 C111.514,58.540003 111.593166,59.1036641 111.7515,59.623 C111.909834,60.1423359 112.147332,60.5919981 112.464,60.972 C112.780668,61.3520019 113.173331,61.646499 113.642,61.8555 C114.110669,62.064501 114.65533,62.169 115.276,62.169 C115.643335,62.169 115.997998,62.1278337 116.34,62.0455 C116.682002,61.9631663 116.989165,61.8301676 117.2615,61.6465 C117.533835,61.4628324 117.758666,61.2253348 117.936,60.934 C118.113334,60.6426652 118.233666,60.2880021 118.297,59.87 L115.238,59.87 L115.238,56.982 Z M124.985,65 L124.985,50.674 L128.709,50.674 L135.587,59.433 L135.587,50.674 L139.292,50.674 L139.292,65 L135.587,65 L128.709,56.241 L128.709,65 L124.985,65 Z M67.225,69.674 L67.225,84 L63.501,84 L63.501,69.674 L67.225,69.674 Z M70.227,84 L70.227,69.674 L73.951,69.674 L80.829,78.433 L80.829,69.674 L84.534,69.674 L84.534,84 L80.829,84 L73.951,75.241 L73.951,84 L70.227,84 Z M97.72,76.077 L98.423,76.077 C99.1576703,76.077 99.7213314,75.9250015 100.114,75.621 C100.506669,75.3169985 100.703,74.8800028 100.703,74.31 C100.703,73.7399971 100.506669,73.3030015 100.114,72.999 C99.7213314,72.6949985 99.1576703,72.543 98.423,72.543 L97.72,72.543 L97.72,76.077 Z M105.909,84 L101.273,84 L97.72,78.49 L97.72,84 L93.996,84 L93.996,69.674 L99.791,69.674 C100.589004,69.674 101.285664,69.7911655 101.881,70.0255 C102.476336,70.2598345 102.967165,70.5796646 103.3535,70.985 C103.739835,71.3903354 104.031166,71.8589973 104.2275,72.391 C104.423834,72.9230027 104.522,73.492997 104.522,74.101 C104.522,75.1903388 104.259169,76.0738299 103.7335,76.7515 C103.207831,77.4291701 102.432005,77.8883321 101.406,78.129 L105.909,84 Z M115.618,72.828 L111.191,72.828 L111.191,75.222 L115.371,75.222 L115.371,78.376 L111.191,78.376 L111.191,80.846 L115.618,80.846 L115.618,84 L107.467,84 L107.467,69.674 L115.618,69.674 L115.618,72.828 Z M126.087,78.68 L124.415,73.911 L122.743,78.68 L126.087,78.68 Z M127.075,81.511 L121.755,81.511 L120.9,84 L116.929,84 L122.382,69.674 L126.448,69.674 L131.901,84 L127.93,84 L127.075,81.511 Z M143.32,74.462 C142.458662,73.4106614 141.394673,72.885 140.128,72.885 C139.570664,72.885 139.054502,72.9863323 138.5795,73.189 C138.104498,73.3916677 137.696002,73.6671649 137.354,74.0155 C137.011998,74.3638351 136.742834,74.7786643 136.5465,75.26 C136.350166,75.7413357 136.252,76.2606639 136.252,76.818 C136.252,77.3880028 136.350166,77.9136643 136.5465,78.395 C136.742834,78.8763357 137.015165,79.2943316 137.3635,79.649 C137.711835,80.0036684 138.120331,80.2823323 138.589,80.485 C139.057669,80.6876677 139.564331,80.789 140.109,80.789 C141.299673,80.789 142.369995,80.2823384 143.32,79.269 L143.32,83.677 L142.94,83.81 C142.369997,84.0126677 141.838002,84.1614995 141.344,84.2565 C140.849998,84.3515005 140.362336,84.399 139.881,84.399 C138.892995,84.399 137.946171,84.2121685 137.0405,83.8385 C136.134829,83.4648315 135.336837,82.9391701 134.6465,82.2615 C133.956163,81.5838299 133.402002,80.7795047 132.984,79.8485 C132.565998,78.9174953 132.357,77.9010055 132.357,76.799 C132.357,75.6969945 132.562831,74.6868379 132.9745,73.7685 C133.386169,72.8501621 133.937163,72.0585033 134.6275,71.3935 C135.317837,70.7284967 136.118995,70.2091685 137.031,69.8355 C137.943005,69.4618315 138.899328,69.275 139.9,69.275 C140.470003,69.275 141.030497,69.3351661 141.5815,69.4555 C142.132503,69.5758339 142.711997,69.7626654 143.32,70.016 L143.32,74.462 Z M151.11,72.828 L151.11,84 L147.386,84 L147.386,72.828 L144.327,72.828 L144.327,69.674 L154.169,69.674 L154.169,72.828 L151.11,72.828 Z" id="Design-in-React"></path>
  </g>
</svg>
